<mxfile host="app.diagrams.net" modified="2020-10-05T11:36:28.657Z" agent="5.0 (Windows NT 10.0; Win64; x64) AppleWebKit/537.36 (KHTML, like Gecko) Chrome/85.0.4183.121 Safari/537.36 Edg/85.0.564.63" etag="ZqLiTZBfd9cJPytdboT7" version="13.7.7" type="github">
  <diagram name="Page-1" id="c7558073-3199-34d8-9f00-42111426c3f3">
    <mxGraphModel dx="1543" dy="855" grid="1" gridSize="10" guides="1" tooltips="1" connect="1" arrows="1" fold="1" page="1" pageScale="1" pageWidth="1169" pageHeight="827" background="#ffffff" math="0" shadow="0">
      <root>
        <mxCell id="0" />
        <mxCell id="1" parent="0" />
        <mxCell id="79" value="Technical Network" style="text;spacingTop=-5;align=center" parent="1" vertex="1">
          <mxGeometry x="720" y="571" width="31" height="30" as="geometry" />
        </mxCell>
        <mxCell id="89" value="" style="edgeStyle=elbowEdgeStyle;elbow=horizontal;strokeColor=#990000;strokeWidth=2;entryX=0.536;entryY=1.013;entryDx=0;entryDy=0;entryPerimeter=0;" parent="1" target="dTw0r9zGj_VwAWBjYPoo-98" edge="1">
          <mxGeometry width="100" height="100" relative="1" as="geometry">
            <mxPoint x="424.5" y="720" as="sourcePoint" />
            <mxPoint x="424.5" y="651" as="targetPoint" />
            <Array as="points" />
          </mxGeometry>
        </mxCell>
        <mxCell id="dTw0r9zGj_VwAWBjYPoo-98" value="IP21: KA-WP25" style="shape=process;whiteSpace=wrap;align=center;verticalAlign=middle;size=0.0475;fontStyle=1;strokeWidth=3;" vertex="1" parent="1">
          <mxGeometry x="211" y="590" width="400" height="70" as="geometry" />
        </mxCell>
        <mxCell id="dTw0r9zGj_VwAWBjYPoo-103" value="" style="endArrow=none;dashed=1;html=1;" edge="1" parent="1">
          <mxGeometry width="50" height="50" relative="1" as="geometry">
            <mxPoint x="41" y="560" as="sourcePoint" />
            <mxPoint x="791" y="560" as="targetPoint" />
          </mxGeometry>
        </mxCell>
        <mxCell id="dTw0r9zGj_VwAWBjYPoo-109" value="Enterprise Network" style="text;spacingTop=-5;align=center" vertex="1" parent="1">
          <mxGeometry x="721" y="530" width="30" height="50" as="geometry" />
        </mxCell>
        <mxCell id="dTw0r9zGj_VwAWBjYPoo-111" value="&lt;p style=&quot;margin: 0px ; margin-top: 4px ; text-align: center ; text-decoration: underline&quot;&gt;&lt;strong&gt;Control System&lt;/strong&gt;&lt;/p&gt;&lt;hr&gt;&lt;p style=&quot;margin: 0px ; margin-left: 8px&quot;&gt;&lt;br&gt;&lt;/p&gt;" style="verticalAlign=middle;align=center;overflow=fill;fontSize=12;fontFamily=Helvetica;html=1;rounded=1;fontStyle=1;strokeWidth=3;fillColor=#f5f5f5;gradientColor=#b3b3b3;strokeColor=#666666;" vertex="1" parent="1">
          <mxGeometry x="370.9999999999999" y="720" width="110" height="90" as="geometry" />
        </mxCell>
        <mxCell id="dTw0r9zGj_VwAWBjYPoo-116" value="" style="edgeStyle=elbowEdgeStyle;elbow=horizontal;strokeColor=#990000;strokeWidth=2;exitX=0.5;exitY=1;exitDx=0;exitDy=0;" edge="1" parent="1" source="dTw0r9zGj_VwAWBjYPoo-98">
          <mxGeometry width="100" height="100" relative="1" as="geometry">
            <mxPoint x="411" y="670" as="sourcePoint" />
            <mxPoint x="411" y="720" as="targetPoint" />
            <Array as="points">
              <mxPoint x="411" y="690" />
            </Array>
          </mxGeometry>
        </mxCell>
        <mxCell id="dTw0r9zGj_VwAWBjYPoo-127" value="IP21: KA-W60" style="shape=process;whiteSpace=wrap;align=center;verticalAlign=middle;size=0.2;fontStyle=1;strokeWidth=3;" vertex="1" parent="1">
          <mxGeometry x="210" y="420" width="400" height="90" as="geometry" />
        </mxCell>
        <mxCell id="dTw0r9zGj_VwAWBjYPoo-131" value="&lt;p style=&quot;margin: 0px ; margin-top: 4px ; text-align: center ; text-decoration: underline&quot;&gt;&lt;strong&gt;IPlant&lt;/strong&gt;&lt;/p&gt;&lt;hr&gt;&lt;p style=&quot;margin: 0px ; margin-left: 8px&quot;&gt;&lt;br&gt;&lt;/p&gt;" style="verticalAlign=middle;align=center;overflow=fill;fontSize=12;fontFamily=Helvetica;html=1;rounded=1;fontStyle=1;strokeWidth=3;fillColor=#f8cecc;gradientColor=#ea6b66;strokeColor=#b85450;" vertex="1" parent="1">
          <mxGeometry x="41" y="430" width="110" height="60" as="geometry" />
        </mxCell>
        <mxCell id="dTw0r9zGj_VwAWBjYPoo-133" value="" style="edgeStyle=none;noEdgeStyle=1;strokeColor=#990000;strokeWidth=2" edge="1" parent="1">
          <mxGeometry width="100" height="100" relative="1" as="geometry">
            <mxPoint x="150" y="470" as="sourcePoint" />
            <mxPoint x="210" y="470" as="targetPoint" />
          </mxGeometry>
        </mxCell>
        <mxCell id="dTw0r9zGj_VwAWBjYPoo-134" value="" style="edgeStyle=elbowEdgeStyle;elbow=vertical;strokeColor=#990000;strokeWidth=2;" edge="1" parent="1">
          <mxGeometry width="100" height="100" relative="1" as="geometry">
            <mxPoint x="211" y="490" as="sourcePoint" />
            <mxPoint x="150" y="490" as="targetPoint" />
            <Array as="points">
              <mxPoint x="177" y="490" />
            </Array>
          </mxGeometry>
        </mxCell>
        <mxCell id="dTw0r9zGj_VwAWBjYPoo-136" value="" style="edgeStyle=elbowEdgeStyle;elbow=horizontal;strokeColor=#990000;strokeWidth=2;" edge="1" parent="1" target="dTw0r9zGj_VwAWBjYPoo-127">
          <mxGeometry width="100" height="100" relative="1" as="geometry">
            <mxPoint x="425.5" y="590" as="sourcePoint" />
            <mxPoint x="480" y="550" as="targetPoint" />
            <Array as="points" />
          </mxGeometry>
        </mxCell>
        <mxCell id="dTw0r9zGj_VwAWBjYPoo-137" value="" style="edgeStyle=elbowEdgeStyle;elbow=horizontal;strokeColor=#990000;strokeWidth=2;exitX=0.5;exitY=1;exitDx=0;exitDy=0;dashed=1;" edge="1" parent="1" source="dTw0r9zGj_VwAWBjYPoo-127">
          <mxGeometry width="100" height="100" relative="1" as="geometry">
            <mxPoint x="409.5" y="530" as="sourcePoint" />
            <mxPoint x="409.5" y="590" as="targetPoint" />
            <Array as="points">
              <mxPoint x="409.5" y="560" />
            </Array>
          </mxGeometry>
        </mxCell>
        <mxCell id="dTw0r9zGj_VwAWBjYPoo-138" value="&lt;p style=&quot;margin: 0px ; margin-top: 4px ; text-align: center ; text-decoration: underline&quot;&gt;&lt;strong&gt;Datalogger&lt;/strong&gt;&lt;/p&gt;&lt;hr&gt;&lt;p style=&quot;margin: 0px ; margin-left: 8px&quot;&gt;&lt;br&gt;&lt;/p&gt;" style="verticalAlign=middle;align=center;overflow=fill;fontSize=12;fontFamily=Helvetica;html=1;rounded=1;fontStyle=1;strokeWidth=3;fillColor=#e6d0de;gradientColor=#d5739d;strokeColor=#996185;" vertex="1" parent="1">
          <mxGeometry x="671.9999999999999" y="430" width="110" height="90" as="geometry" />
        </mxCell>
        <mxCell id="dTw0r9zGj_VwAWBjYPoo-139" value="DB &lt;br&gt;Historic Data" style="shape=image;html=1;verticalLabelPosition=bottom;verticalAlign=top;imageAspect=1;aspect=fixed;image=img/clipart/Gear_128x128.png" vertex="1" parent="1">
          <mxGeometry x="552.74" y="430" width="34.1" height="40" as="geometry" />
        </mxCell>
        <mxCell id="dTw0r9zGj_VwAWBjYPoo-141" value="SST PVT Server (new)" style="shape=process;whiteSpace=wrap;align=center;verticalAlign=middle;size=0.2;fontStyle=1;strokeWidth=3;gradientColor=#7ea6e0;fillColor=#dae8fc;strokeColor=#6c8ebf;" vertex="1" parent="1">
          <mxGeometry x="13" y="250" width="400" height="120" as="geometry" />
        </mxCell>
        <mxCell id="dTw0r9zGj_VwAWBjYPoo-142" value="Fieldnet DB" style="shape=image;html=1;verticalLabelPosition=bottom;verticalAlign=top;imageAspect=1;aspect=fixed;image=img/clipart/Gear_128x128.png" vertex="1" parent="1">
          <mxGeometry x="355.9" y="290" width="34.1" height="40" as="geometry" />
        </mxCell>
        <mxCell id="dTw0r9zGj_VwAWBjYPoo-144" value="FlowCalc&lt;br&gt;FieldAgent&lt;br&gt;Test Manager" style="shape=image;html=1;verticalLabelPosition=bottom;verticalAlign=top;imageAspect=1;aspect=fixed;image=img/clipart/Gear_128x128.png" vertex="1" parent="1">
          <mxGeometry x="33" y="269.5" width="38.36" height="45" as="geometry" />
        </mxCell>
        <mxCell id="dTw0r9zGj_VwAWBjYPoo-147" value="" style="edgeStyle=elbowEdgeStyle;elbow=vertical;endArrow=classic;html=1;strokeColor=#990000;strokeWidth=2;entryX=0.579;entryY=1.013;entryDx=0;entryDy=0;entryPerimeter=0;" edge="1" parent="1" target="dTw0r9zGj_VwAWBjYPoo-141">
          <mxGeometry width="50" height="50" relative="1" as="geometry">
            <mxPoint x="384" y="417" as="sourcePoint" />
            <mxPoint x="500" y="370" as="targetPoint" />
          </mxGeometry>
        </mxCell>
        <mxCell id="dTw0r9zGj_VwAWBjYPoo-148" value="" style="edgeStyle=elbowEdgeStyle;elbow=vertical;endArrow=classic;html=1;strokeColor=#990000;strokeWidth=2;entryX=0.342;entryY=-0.006;entryDx=0;entryDy=0;entryPerimeter=0;exitX=0.476;exitY=0.995;exitDx=0;exitDy=0;exitPerimeter=0;" edge="1" parent="1" source="dTw0r9zGj_VwAWBjYPoo-141" target="dTw0r9zGj_VwAWBjYPoo-127">
          <mxGeometry width="50" height="50" relative="1" as="geometry">
            <mxPoint x="204.5999999999999" y="379.55999999999995" as="sourcePoint" />
            <mxPoint x="410" y="420" as="targetPoint" />
            <Array as="points">
              <mxPoint x="300" y="410" />
            </Array>
          </mxGeometry>
        </mxCell>
        <mxCell id="dTw0r9zGj_VwAWBjYPoo-149" value="Fieldnet AS" style="rounded=1;whiteSpace=wrap;html=1;gradientColor=#7ea6e0;fillColor=#dae8fc;strokeColor=#6c8ebf;" vertex="1" parent="1">
          <mxGeometry x="1010" y="250" width="120" height="60" as="geometry" />
        </mxCell>
        <mxCell id="dTw0r9zGj_VwAWBjYPoo-150" value="K-LAB" style="rounded=1;whiteSpace=wrap;html=1;gradientColor=#ea6b66;fillColor=#f8cecc;strokeColor=#b85450;" vertex="1" parent="1">
          <mxGeometry x="1010" y="320" width="120" height="60" as="geometry" />
        </mxCell>
        <mxCell id="dTw0r9zGj_VwAWBjYPoo-151" value="K-LAB" style="rounded=1;whiteSpace=wrap;html=1;gradientColor=#d5739d;fillColor=#e6d0de;strokeColor=#996185;" vertex="1" parent="1">
          <mxGeometry x="1010" y="390" width="120" height="60" as="geometry" />
        </mxCell>
        <mxCell id="dTw0r9zGj_VwAWBjYPoo-152" value="K-LAB" style="rounded=1;whiteSpace=wrap;html=1;" vertex="1" parent="1">
          <mxGeometry x="1010" y="460" width="120" height="60" as="geometry" />
        </mxCell>
        <mxCell id="dTw0r9zGj_VwAWBjYPoo-153" value="K-LAB" style="rounded=1;whiteSpace=wrap;html=1;gradientColor=#b3b3b3;fillColor=#f5f5f5;strokeColor=#666666;" vertex="1" parent="1">
          <mxGeometry x="1010" y="530" width="120" height="60" as="geometry" />
        </mxCell>
        <mxCell id="dTw0r9zGj_VwAWBjYPoo-154" value="&lt;p style=&quot;margin: 0px ; margin-top: 4px ; text-align: center ; text-decoration: underline&quot;&gt;Client (PC)&lt;/p&gt;&lt;hr&gt;&lt;p style=&quot;margin: 0px ; margin-left: 8px&quot;&gt;&lt;br&gt;&lt;/p&gt;" style="verticalAlign=middle;align=center;overflow=fill;fontSize=12;fontFamily=Helvetica;html=1;rounded=1;fontStyle=1;strokeWidth=3;fillColor=#dae8fc;gradientColor=#7ea6e0;strokeColor=#6c8ebf;" vertex="1" parent="1">
          <mxGeometry x="13" y="146" width="87" height="60" as="geometry" />
        </mxCell>
        <mxCell id="dTw0r9zGj_VwAWBjYPoo-156" value="&lt;p style=&quot;margin: 0px ; margin-top: 4px ; text-align: center ; text-decoration: underline&quot;&gt;Test Manager&amp;nbsp;&lt;/p&gt;&lt;p style=&quot;margin: 0px ; margin-top: 4px ; text-align: center ; text-decoration: underline&quot;&gt;(Excel)&lt;/p&gt;&lt;hr&gt;&lt;p style=&quot;margin: 0px ; margin-left: 8px&quot;&gt;&lt;br&gt;&lt;/p&gt;" style="verticalAlign=middle;align=center;overflow=fill;fontSize=12;fontFamily=Helvetica;html=1;rounded=1;fontStyle=1;strokeWidth=3;fillColor=#dae8fc;gradientColor=#7ea6e0;strokeColor=#6c8ebf;" vertex="1" parent="1">
          <mxGeometry x="103" y="146" width="80" height="60" as="geometry" />
        </mxCell>
        <mxCell id="dTw0r9zGj_VwAWBjYPoo-157" value="Web services&lt;br&gt;REST API" style="ellipse;whiteSpace=wrap;html=1;gradientColor=#7ea6e0;fillColor=#dae8fc;strokeColor=#6c8ebf;" vertex="1" parent="1">
          <mxGeometry x="295" y="136" width="120" height="80" as="geometry" />
        </mxCell>
        <mxCell id="dTw0r9zGj_VwAWBjYPoo-159" value="K-LAB&amp;nbsp;&lt;br&gt;User" style="shape=umlActor;verticalLabelPosition=bottom;verticalAlign=top;html=1;outlineConnect=0;" vertex="1" parent="1">
          <mxGeometry x="127" y="47" width="30" height="60" as="geometry" />
        </mxCell>
        <mxCell id="dTw0r9zGj_VwAWBjYPoo-163" value="" style="edgeStyle=none;noEdgeStyle=1;strokeColor=#990000;strokeWidth=2;exitX=1;exitY=0.5;exitDx=0;exitDy=0;" edge="1" parent="1">
          <mxGeometry width="100" height="100" relative="1" as="geometry">
            <mxPoint x="273" y="176" as="sourcePoint" />
            <mxPoint x="300" y="175.5" as="targetPoint" />
          </mxGeometry>
        </mxCell>
        <mxCell id="dTw0r9zGj_VwAWBjYPoo-164" value="" style="edgeStyle=elbowEdgeStyle;elbow=vertical;strokeColor=#990000;strokeWidth=2;" edge="1" parent="1">
          <mxGeometry width="100" height="100" relative="1" as="geometry">
            <mxPoint x="300" y="186" as="sourcePoint" />
            <mxPoint x="273" y="186" as="targetPoint" />
            <Array as="points">
              <mxPoint x="300" y="186" />
            </Array>
          </mxGeometry>
        </mxCell>
        <mxCell id="dTw0r9zGj_VwAWBjYPoo-170" value="" style="edgeStyle=elbowEdgeStyle;elbow=vertical;endArrow=classic;html=1;strokeColor=#990000;strokeWidth=2;exitX=0.476;exitY=0.995;exitDx=0;exitDy=0;exitPerimeter=0;" edge="1" parent="1" target="dTw0r9zGj_VwAWBjYPoo-157">
          <mxGeometry width="50" height="50" relative="1" as="geometry">
            <mxPoint x="240.00000000000009" y="250.0000000000001" as="sourcePoint" />
            <mxPoint x="446.6" y="300.6" as="targetPoint" />
            <Array as="points">
              <mxPoint x="355" y="240" />
            </Array>
          </mxGeometry>
        </mxCell>
        <mxCell id="dTw0r9zGj_VwAWBjYPoo-171" value="" style="edgeStyle=elbowEdgeStyle;elbow=vertical;endArrow=classic;html=1;strokeColor=#990000;strokeWidth=2;exitX=0.292;exitY=0.925;exitDx=0;exitDy=0;exitPerimeter=0;entryX=0.526;entryY=-0.006;entryDx=0;entryDy=0;entryPerimeter=0;" edge="1" parent="1" source="dTw0r9zGj_VwAWBjYPoo-157" target="dTw0r9zGj_VwAWBjYPoo-141">
          <mxGeometry width="50" height="50" relative="1" as="geometry">
            <mxPoint x="345" y="206" as="sourcePoint" />
            <mxPoint x="230" y="240" as="targetPoint" />
            <Array as="points">
              <mxPoint x="345" y="230" />
            </Array>
          </mxGeometry>
        </mxCell>
        <mxCell id="dTw0r9zGj_VwAWBjYPoo-172" value="WS3579 Sandbox&#xa;TESTING" style="shape=process;whiteSpace=wrap;align=center;verticalAlign=middle;size=0.25;fontStyle=1;strokeWidth=3;" vertex="1" parent="1">
          <mxGeometry x="520" y="245" width="325" height="120" as="geometry" />
        </mxCell>
        <mxCell id="dTw0r9zGj_VwAWBjYPoo-173" value="FlowCalc&lt;br&gt;FieldAgent&lt;br&gt;Test Manager&lt;br&gt;PVTCalc" style="shape=image;html=1;verticalLabelPosition=bottom;verticalAlign=top;imageAspect=1;aspect=fixed;image=img/clipart/Gear_128x128.png" vertex="1" parent="1">
          <mxGeometry x="540.82" y="250" width="38.36" height="45" as="geometry" />
        </mxCell>
        <mxCell id="dTw0r9zGj_VwAWBjYPoo-174" value="" style="edgeStyle=elbowEdgeStyle;elbow=vertical;endArrow=classic;html=1;strokeColor=#990000;strokeWidth=2;exitX=0.292;exitY=0.925;exitDx=0;exitDy=0;exitPerimeter=0;entryX=0.584;entryY=-0.03;entryDx=0;entryDy=0;entryPerimeter=0;" edge="1" parent="1" target="dTw0r9zGj_VwAWBjYPoo-127">
          <mxGeometry width="50" height="50" relative="1" as="geometry">
            <mxPoint x="651.64" y="365" as="sourcePoint" />
            <mxPoint x="545.0000000000001" y="404.28" as="targetPoint" />
            <Array as="points">
              <mxPoint x="666.6" y="385" />
            </Array>
          </mxGeometry>
        </mxCell>
        <mxCell id="dTw0r9zGj_VwAWBjYPoo-175" value="" style="edgeStyle=elbowEdgeStyle;elbow=vertical;endArrow=classic;html=1;strokeColor=#990000;strokeWidth=2;exitX=0.476;exitY=0.995;exitDx=0;exitDy=0;exitPerimeter=0;entryX=0.5;entryY=1;entryDx=0;entryDy=0;" edge="1" parent="1" target="dTw0r9zGj_VwAWBjYPoo-172">
          <mxGeometry width="50" height="50" relative="1" as="geometry">
            <mxPoint x="471.84000000000003" y="420" as="sourcePoint" />
            <mxPoint x="586.84" y="386" as="targetPoint" />
            <Array as="points">
              <mxPoint x="586.84" y="410" />
            </Array>
          </mxGeometry>
        </mxCell>
        <mxCell id="dTw0r9zGj_VwAWBjYPoo-176" value="" style="edgeStyle=none;noEdgeStyle=1;strokeColor=#990000;strokeWidth=2" edge="1" parent="1">
          <mxGeometry width="100" height="100" relative="1" as="geometry">
            <mxPoint x="611" y="472" as="sourcePoint" />
            <mxPoint x="671" y="472" as="targetPoint" />
          </mxGeometry>
        </mxCell>
        <mxCell id="dTw0r9zGj_VwAWBjYPoo-177" value="" style="edgeStyle=elbowEdgeStyle;elbow=vertical;strokeColor=#990000;strokeWidth=2;" edge="1" parent="1">
          <mxGeometry width="100" height="100" relative="1" as="geometry">
            <mxPoint x="672" y="492" as="sourcePoint" />
            <mxPoint x="611" y="492" as="targetPoint" />
            <Array as="points">
              <mxPoint x="638" y="492" />
            </Array>
          </mxGeometry>
        </mxCell>
        <mxCell id="dTw0r9zGj_VwAWBjYPoo-178" value="&lt;p style=&quot;margin: 0px ; margin-top: 4px ; text-align: center ; text-decoration: underline&quot;&gt;&lt;strong&gt;Pulse&lt;/strong&gt;&lt;/p&gt;&lt;hr&gt;&lt;p style=&quot;margin: 0px ; margin-left: 8px&quot;&gt;&lt;br&gt;&lt;/p&gt;" style="verticalAlign=middle;align=center;overflow=fill;fontSize=12;fontFamily=Helvetica;html=1;rounded=1;fontStyle=1;strokeWidth=3;fillColor=#ffcd28;gradientColor=#ffa500;strokeColor=#d79b00;" vertex="1" parent="1">
          <mxGeometry x="41" y="490" width="110" height="60" as="geometry" />
        </mxCell>
        <mxCell id="dTw0r9zGj_VwAWBjYPoo-179" value="&lt;p style=&quot;margin: 0px ; margin-top: 4px ; text-align: center ; text-decoration: underline&quot;&gt;PVT Sim&lt;/p&gt;&lt;hr&gt;&lt;p style=&quot;margin: 0px ; margin-left: 8px&quot;&gt;&lt;br&gt;&lt;/p&gt;" style="verticalAlign=middle;align=center;overflow=fill;fontSize=12;fontFamily=Helvetica;html=1;rounded=1;fontStyle=1;strokeWidth=3;" vertex="1" parent="1">
          <mxGeometry x="186" y="85" width="87" height="60" as="geometry" />
        </mxCell>
        <mxCell id="dTw0r9zGj_VwAWBjYPoo-180" value="&lt;p style=&quot;margin: 0px ; margin-top: 4px ; text-align: center ; text-decoration: underline&quot;&gt;PVT Calc&lt;/p&gt;&lt;hr&gt;&lt;p style=&quot;margin: 0px ; margin-left: 8px&quot;&gt;&lt;br&gt;&lt;/p&gt;" style="verticalAlign=middle;align=center;overflow=fill;fontSize=12;fontFamily=Helvetica;html=1;rounded=1;fontStyle=1;strokeWidth=3;" vertex="1" parent="1">
          <mxGeometry x="185" y="146" width="87" height="60" as="geometry" />
        </mxCell>
        <mxCell id="dTw0r9zGj_VwAWBjYPoo-181" value="&lt;p style=&quot;margin: 0px ; margin-top: 4px ; text-align: center ; text-decoration: underline&quot;&gt;Optional apps&lt;/p&gt;&lt;hr&gt;&lt;p style=&quot;margin: 0px ; margin-left: 8px&quot;&gt;&lt;br&gt;&lt;/p&gt;" style="verticalAlign=middle;align=center;overflow=fill;fontSize=12;fontFamily=Helvetica;html=1;rounded=1;fontStyle=1;strokeWidth=3;" vertex="1" parent="1">
          <mxGeometry x="13" y="85" width="87" height="60" as="geometry" />
        </mxCell>
      </root>
    </mxGraphModel>
  </diagram>
</mxfile>
